<?xml version="1.0" encoding="utf-8"?>
<!-- Generator: Adobe Illustrator 23.0.1, SVG Export Plug-In . SVG Version: 6.00 Build 0)  -->
<svg version="1.1" id="Layer_1" xmlns="http://www.w3.org/2000/svg" xmlns:xlink="http://www.w3.org/1999/xlink" x="0px" y="0px"
	 viewBox="0 0 377.3 492.7" style="enable-background:new 0 0 377.3 492.7;" xml:space="preserve">
<style type="text/css">
	.st0{fill:#FFFFFF;}
	.st1{fill:#007AFF;stroke:#FFFFFF;stroke-width:12;stroke-miterlimit:10;}
	.st2{fill:#007AFF;}
</style>
<path class="st0" d="M188.7,35.8c-82.6,0-148.8,66.3-150.2,147.8c-1.4,84.1,65,152.9,150.5,153.3c81.5,0.4,149.3-67.8,149.8-148.9
	C339.2,104.3,271.9,35.8,188.7,35.8z"/>
<path class="st1" d="M188.5,479.1c-6.6-7.3-13-14.3-19.5-21.5c-31-34.8-60.5-70.8-87.3-108.9c-22-31.4-42.1-63.9-57.7-99
	c-19.3-43.4-17.5-86,1.6-128.7C52.2,61.3,98.7,27,162.1,16.1C215.3,7,263,22.4,304.1,56.9c33.6,28.3,53.8,64.8,61,108.1
	c4.6,27.5,0.5,54.2-9.9,79.9c-14,34.6-33.4,66.1-54.5,96.6c-33.1,47.6-70.1,92-109.2,134.7C190.6,477.2,189.6,478,188.5,479.1z"/>
<path class="st0" d="M188.7,47.9c-77,0-138.8,61.9-140.1,137.9c-1.3,78.4,60.6,142.6,140.4,143c76.1,0.4,139.3-63.2,139.7-138.9
	C329.2,111.8,266.4,47.9,188.7,47.9z"/>
<path class="st2" d="M225.6,196.2c-0.9-2.1-1.8-4.3-3.1-7.4c-5.7,6.2-11,11.9-16.2,17.7c-7,7.7-14,15.4-21.2,22.9
	c-1,1.1-3.3,1-5,1.5c0.3-1.7,0.1-4,1-5.1c12.3-13.7,24.6-27.4,37.1-40.8c2.9-3.1,4.1-6,2.8-10c-4.7-0.5-9.4-0.9-14.1-1.4
	c-4.7-0.6-8-3.6-8.8-8c-1.1-6.4-1.5-13-1.8-19.6c-0.2-5,0.3-10,0.7-15.1c0.2-3.4-1.7-5.1-4.5-5.5c-8.9-1.1-17.2,0.6-24.6,5.9
	c-4.7,3.3-4.7,6-0.4,10.3c4.1,4,8.3,7.7,12.4,11.6c13.4,12.9,13.9,19.7,2.4,34.4c-4,5.1-8.3,9.8-12.7,14.6c-1.5,1.7-1.9,3-1.3,5.7
	c3.6,16.1,8.7,32.1-3,47.5c-9.4,12.4-26.3,18.7-42,14.5c-15-4.1-26.8-17.7-28.4-32.9c-2.5-23.6,14-43.1,37.7-44.2
	c5-0.2,10.1,1.8,15.2,2.6c1.5,0.2,3.7,0.4,4.5-0.5c6.2-6.8,12.2-14,18.3-20.9c2-2.3,1.8-3.8-0.5-5.8c-5.2-4.6-10.2-9.4-15-14.4
	c-12.4-12.8-10.9-27.9,4-37.5c11.9-7.7,25-10.8,39.1-7.1c10.1,2.6,15.2,8.7,15.8,19.1c0.4,7.7,0,15.4-0.1,23.2c0,1.7,0,3.4,0,5.4
	c4.1,0,7.7,0.2,11.4,0c5-0.3,9.4,2.2,10.3,6.3c1.1,4.9-1,8.5-6,10.6c-0.9,0.4-2.3,1.5-2.4,2.4c-0.5,5.7-0.7,11.4,2.7,16.3
	c0.8,1,3.1,1.8,4.4,1.5c21.8-4.5,41.7,7.7,47.1,29.3c5.4,21.5-9.1,43.3-31.8,47.5c-20.7,3.9-42.4-11.5-45-32.4
	c-2.1-16.7,3.6-30.2,18-39.6c0.7-0.5,1.3-0.9,1.9-1.3C225.1,197.1,225.2,196.8,225.6,196.2z M228.2,202.6
	c-16.5,7.9-22.9,28.6-14.4,45c8.8,16.9,29.9,22.9,46.6,13.2c16.2-9.4,21.5-30.5,11.6-46.3c-8.6-13.7-28.2-20.7-38.6-13.6
	c2.8,6.8,5.7,13.8,8.8,20.6c0.9,2.2,2.6,4.3,4.4,5.7c2.7,2.2,3.3,5,1.5,7.4c-1.2,1.6-4.3,2.7-6.3,2.6c-3.1-0.4-4.4-3.1-4-6.4
	c0.2-1.3,0.8-2.9,0.3-4.1C235,218.7,231.7,210.8,228.2,202.6z M149.6,216.2c-2.1,2.6-5.1,6.2-7.7,10.1c-1.1,1.7-1.9,3.8-2.3,5.9
	c-0.6,3.3-2.3,5.7-5.5,5.1c-2.2-0.4-4.8-2.5-5.7-4.3c-1.1-2.9,0.9-5.3,3.9-6.4c1.1-0.5,2.8-0.7,3.3-1.5c3.5-6.6,12-10.3,10.4-20.3
	c-0.7-3.7-1.4-4.7-4.3-5.4c-13.6-3.3-27.6,2.3-35.7,14.3c-7.8,11.5-7.6,26.5,0.8,38c8,11.2,22.6,16.4,35.8,12.8
	c18-4.9,29-24,23.5-41c-0.4-1.2-1.1-2.9-2.1-3.2C159.6,218.6,155.2,217.6,149.6,216.2z"/>
<path class="st2" d="M236.6,101.6c10.1,0,17.7,7.5,17.6,17.4c-0.1,9.7-7.7,17.4-17.1,17.5c-9.8,0.1-18.1-8.1-18-17.9
	C219.1,109.4,227,101.6,236.6,101.6z"/>
</svg>
