<?xml version="1.0" encoding="utf-8"?>
<!-- Generator: Adobe Illustrator 23.0.1, SVG Export Plug-In . SVG Version: 6.00 Build 0)  -->
<svg version="1.1" id="Layer_1" xmlns="http://www.w3.org/2000/svg" xmlns:xlink="http://www.w3.org/1999/xlink" x="0px" y="0px"
	 viewBox="0 0 377.3 492.7" style="enable-background:new 0 0 377.3 492.7;" xml:space="preserve">
<style type="text/css">
	.st0{fill:#FFFFFF;}
	.st1{fill:#007AFF;}
</style>
<g>
	<path class="st0" d="M188.7,23.5c-87.4,0-157.5,70.2-158.9,156.4c-1.5,89,68.8,161.8,159.3,162.2c86.3,0.4,158-71.7,158.5-157.6
		C348,96,276.8,23.5,188.7,23.5z"/>
	<g>
		<path class="st1" d="M188.5,492.7c-7-7.7-13.8-15.1-20.6-22.7c-32.8-36.8-64-74.9-92.4-115.2C52.2,321.6,31,287.2,14.4,250
			C-6,204.1-4.1,159,16.1,113.8C44.2,50.5,93.5,14.2,160.6,2.7c56.3-9.6,106.7,6.6,150.2,43.2c35.6,29.9,56.9,68.6,64.6,114.4
			c4.9,29.1,0.5,57.4-10.5,84.6c-14.8,36.6-35.3,70-57.7,102.2c-35,50.4-74.2,97.4-115.6,142.6C190.7,490.7,189.7,491.5,188.5,492.7
			z M188.7,23.5c-87.4,0-157.5,70.2-158.9,156.4c-1.5,89,68.8,161.8,159.3,162.2c86.3,0.4,158-71.7,158.5-157.6
			C348.1,96,276.9,23.5,188.7,23.5z"/>
		<path class="st1" d="M227.7,193.3c-0.9-2.2-1.9-4.6-3.3-7.8c-6,6.6-11.6,12.6-17.1,18.7c-7.4,8.1-14.8,16.3-22.4,24.2
			c-1.1,1.2-3.5,1.1-5.3,1.6c0.3-1.8,0.1-4.2,1.1-5.4c13-14.5,26-29,39.3-43.2c3.1-3.3,4.3-6.4,3-10.6c-5-0.5-10-0.9-14.9-1.5
			c-5-0.6-8.5-3.8-9.3-8.5c-1.2-6.8-1.6-13.8-1.9-20.7c-0.2-5.3,0.3-10.6,0.7-16c0.2-3.6-1.8-5.4-4.8-5.8c-9.4-1.2-18.2,0.6-26,6.2
			c-5,3.5-5,6.4-0.4,10.9c4.3,4.2,8.8,8.1,13.1,12.3c14.2,13.7,14.7,20.8,2.5,36.4c-4.2,5.4-8.8,10.4-13.4,15.5
			c-1.6,1.8-2,3.2-1.4,6c3.8,17,9.2,34-3.2,50.3c-10,13.1-27.8,19.8-44.4,15.3c-15.9-4.3-28.4-18.7-30.1-34.8
			c-2.6-25,14.8-45.6,39.9-46.8c5.3-0.2,10.7,1.9,16.1,2.8c1.6,0.2,3.9,0.4,4.8-0.5c6.6-7.2,12.9-14.8,19.4-22.1
			c2.1-2.4,1.9-4-0.5-6.1c-5.5-4.9-10.8-9.9-15.9-15.2c-13.1-13.5-11.5-29.5,4.2-39.7c12.6-8.2,26.5-11.4,41.4-7.5
			c10.7,2.8,16.1,9.2,16.7,20.2c0.4,8.1,0,16.3-0.1,24.5c0,1.8,0,3.6,0,5.7c4.3,0,8.2,0.2,12.1,0c5.3-0.3,9.9,2.3,10.9,6.7
			c1.2,5.2-1.1,9-6.4,11.2c-1,0.4-2.4,1.6-2.5,2.5c-0.5,6-0.7,12.1,2.9,17.3c0.8,1.1,3.3,1.9,4.7,1.6c23.1-4.8,44.1,8.1,49.8,31
			c5.7,22.8-9.6,45.8-33.6,50.3c-21.9,4.1-44.9-12.2-47.6-34.3c-2.2-17.7,3.8-32,19.1-41.9c0.7-0.5,1.4-0.9,2-1.4
			C227.2,194.2,227.3,193.9,227.7,193.3z M230.5,200c-17.5,8.4-24.2,30.3-15.2,47.6c9.3,17.9,31.6,24.2,49.3,14
			c17.1-9.9,22.8-32.3,12.3-49c-9.1-14.5-29.8-21.9-40.8-14.4c3,7.2,6,14.6,9.3,21.8c1,2.3,2.8,4.5,4.7,6c2.9,2.3,3.5,5.3,1.6,7.8
			c-1.3,1.7-4.5,2.9-6.7,2.7c-3.3-0.4-4.7-3.3-4.2-6.8c0.2-1.4,0.8-3.1,0.3-4.3C237.7,217.1,234.2,208.7,230.5,200z M147.3,214.4
			c-2.2,2.8-5.4,6.6-8.2,10.7c-1.2,1.8-2,4-2.4,6.2c-0.6,3.5-2.4,6-5.8,5.4c-2.3-0.4-5.1-2.6-6-4.6c-1.2-3.1,0.9-5.6,4.1-6.8
			c1.2-0.5,3-0.7,3.5-1.6c3.7-7,12.7-10.9,11-21.5c-0.7-3.9-1.5-5-4.5-5.7c-14.4-3.5-29.2,2.4-37.8,15.1c-8.3,12.2-8,28,0.8,40.2
			c8.5,11.9,23.9,17.4,37.9,13.5c19.1-5.2,30.7-25.4,24.9-43.4c-0.4-1.3-1.2-3.1-2.2-3.4C157.9,217,153.2,215.9,147.3,214.4z"/>
		<path class="st1" d="M239.4,93.2c10.7,0,18.7,7.9,18.6,18.4c-0.1,10.3-8.1,18.4-18.1,18.5c-10.4,0.1-19.2-8.6-19.1-18.9
			C220.9,101.4,229.2,93.2,239.4,93.2z"/>
	</g>
</g>
</svg>
