<?xml version="1.0" encoding="utf-8"?>
<!-- Generator: Adobe Illustrator 23.0.1, SVG Export Plug-In . SVG Version: 6.00 Build 0)  -->
<svg version="1.1" id="Layer_1" xmlns="http://www.w3.org/2000/svg" xmlns:xlink="http://www.w3.org/1999/xlink" x="0px" y="0px"
	 viewBox="0 0 448 448" style="enable-background:new 0 0 448 448;" xml:space="preserve">
<style type="text/css">
	.st0{fill:#FFFFFF;}
</style>
<circle class="st0" cx="224" cy="224" r="224"/>
<path d="M352,196.2h-94.6c-3.1,0-5.6-2.5-5.6-5.6V96c0-15.4-12.5-27.8-27.8-27.8S196.2,80.6,196.2,96v94.6c0,3.1-2.5,5.6-5.6,5.6H96
	c-15.4,0-27.8,12.5-27.8,27.8s12.5,27.8,27.8,27.8h94.6c3.1,0,5.6,2.5,5.6,5.6V352c0,15.4,12.5,27.8,27.8,27.8s27.8-12.5,27.8-27.8
	v-94.6c0-3.1,2.5-5.6,5.6-5.6H352c15.4,0,27.8-12.5,27.8-27.8S367.4,196.2,352,196.2z"/>
</svg>
